# Blender v2.79 (sub 0) OBJ File: 'lift.blend'
# www.blender.org
mtllib doorsEdgeSegment.mtl
o Cube.003_Cube.004
v -0.100000 -1.500000 0.100000
v -0.100000 1.500000 0.100000
v -0.100000 -1.500000 -0.100000
v -0.100000 1.500000 -0.100000
v 0.100000 -1.500000 0.100000
v 0.100000 1.500000 0.100000
v 0.100000 -1.500000 -0.100000
v 0.100000 1.500000 -0.100000
v -0.050000 -1.450000 0.050000
v -0.050000 1.450000 0.050000
v -0.050000 -1.450000 -0.050000
v -0.050000 1.450000 -0.050000
v 0.100000 -1.450000 0.050000
v 0.100000 1.450000 0.050000
v 0.100000 -1.450000 -0.050000
v 0.100000 1.450000 -0.050000
vn -1.0000 0.0000 0.0000
vn 0.0000 0.0000 -1.0000
vn 0.0000 0.0000 1.0000
vn 0.0000 -1.0000 0.0000
vn 0.0000 1.0000 0.0000
vn 1.0000 0.0000 0.0000
usemtl None
s off
f 1//1 2//1 4//1 3//1
f 3//2 4//2 8//2 7//2
f 5//3 6//3 2//3 1//3
f 3//4 7//4 5//4 1//4
f 8//5 4//5 2//5 6//5
f 9//6 11//6 12//6 10//6
f 11//3 15//3 16//3 12//3
f 13//2 9//2 10//2 14//2
f 11//5 9//5 13//5 15//5
f 16//4 14//4 10//4 12//4
f 6//6 14//6 16//6 8//6
f 7//6 8//6 16//6 15//6
f 5//6 13//6 14//6 6//6
f 7//6 15//6 13//6 5//6
