# Blender v2.79 (sub 0) OBJ File: 'lift.blend'
# www.blender.org
mtllib doorsInnerSegment.mtl
o Cube.005_Cube.003
v -0.100000 -1.500000 0.100000
v -0.100000 1.500000 0.100000
v -0.100000 -1.500000 -0.100000
v -0.100000 1.500000 -0.100000
v 0.100000 -1.500000 0.100000
v 0.100000 1.500000 0.100000
v 0.100000 -1.500000 -0.100000
v 0.100000 1.500000 -0.100000
v -0.100000 -1.450000 0.050000
v -0.100000 1.450000 0.050000
v -0.100000 -1.450000 -0.050000
v -0.100000 1.450000 -0.050000
v 0.100000 -1.450000 0.050000
v 0.100000 1.450000 0.050000
v 0.100000 -1.450000 -0.050000
v 0.100000 1.450000 -0.050000
vn 0.0000 0.0000 -1.0000
vn 0.0000 0.0000 1.0000
vn 0.0000 -1.0000 0.0000
vn 0.0000 1.0000 0.0000
vn 1.0000 0.0000 -0.0000
vn -1.0000 -0.0000 0.0000
usemtl None
s off
f 3//1 4//1 8//1 7//1
f 5//2 6//2 2//2 1//2
f 3//3 7//3 5//3 1//3
f 8//4 4//4 2//4 6//4
f 11//2 15//2 16//2 12//2
f 13//1 9//1 10//1 14//1
f 11//4 9//4 13//4 15//4
f 16//3 14//3 10//3 12//3
f 7//5 8//5 16//5 15//5
f 5//5 13//5 14//5 6//5
f 7//5 15//5 13//5 5//5
f 6//5 14//5 16//5 8//5
f 4//6 12//6 10//6 2//6
f 2//6 10//6 9//6 1//6
f 3//6 11//6 12//6 4//6
f 1//6 9//6 11//6 3//6
